<?xml version="1.0" encoding="UTF-8"?>
<svg width="1001px" height="213px" viewBox="0 0 1001 213" version="1.1" xmlns="http://www.w3.org/2000/svg" xmlns:xlink="http://www.w3.org/1999/xlink">
    <!-- Generator: Sketch 61.2 (89653) - https://sketch.com -->
    <title>Group 2</title>
    <desc>Created with Sketch.</desc>
    <g id="Page-1" stroke="none" stroke-width="1" fill="none" fill-rule="evenodd">
        <g id="Group-2" transform="translate(0.000000, -41.000000)">
            <g id="Group" transform="translate(0.000000, 41.000000)" fill="#5300FF" fill-rule="nonzero">
                <path d="M358.672,173.83 C325.197,198.742 276.538,212.021 234.668,212.053076 C175.981,212.1 123.162,190.364 83.123,154.052 C79.976,151.212 82.793,147.313 86.569,149.537 C129.733,174.712 183.064,189.897 238.185,189.854 C275.35,189.825 316.236,182.01 353.807,165.968 C359.484,163.542 364.245,169.737 358.672,173.83" id="Path"></path>
                <path d="M372.666,157.794 C368.346,152.321 344.282,155.224 333.483,156.545 C330.177,156.936 329.676,154.054 332.634,151.989 C351.844,138.413 383.292,142.293 386.954,146.839 C390.62,151.392 386.011,183.094 368.022,198.267 C365.247,200.586 362.639,199.298 363.852,196.29 C367.887,186.108 376.963,163.329 372.666,157.794" id="Path"></path>
                <path d="M334.152,56.215 L334.142,43.046 C334.14,41.055 335.656,39.693 337.451,39.692 L396.191,39.6459979 C398.068,39.644 399.571,41.039 399.572,42.994 L399.581,54.258 C399.583,56.165 397.988,58.625 395.149,62.556 L364.79,106.241 C376.104,105.957 388.012,107.66 398.269,113.477 C400.61,114.753 401.256,116.711 401.398,118.616 L401.409,132.648 C401.41,134.598 399.311,136.808 397.087,135.65 C379.028,126.158 355.018,125.112 335.028,135.815 C332.997,136.91 330.862,134.737 330.861,132.776 L330.849936,119.4 C330.848,117.264 330.879,113.639 333.02,110.362 L368.229,59.509 L337.543,59.533 C335.671,59.535 334.154,58.202 334.152,56.215" id="Path"></path>
                <path d="M119.996,138.639 L102.115,138.653 C100.43,138.565 99.059,137.282 98.909,135.652 L98.867998,43.473 C98.866,41.636 100.374,40.151 102.298,40.149 L118.938,40.137 C120.7,40.22 122.103,41.534 122.182,43.213 L122.192,55.243 L122.545,55.243 C126.862,43.599 135.041,38.169 146.029,38.16 C157.222,38.152 164.233,43.571 169.234,55.207 C173.558,43.563 183.406,38.131 193.903,38.1239912 C201.426,38.118 209.611,41.191 214.609,48.201 C220.257,55.964 219.14,67.185 219.148,77.067 L219.142,135.245 C219.143,137.11 217.647,138.564 215.713,138.566 L197.858,138.581 C196.078,138.461 194.673,137.044 194.672,135.264 L194.634,86.43 C194.631,82.524 194.941,72.841 194.113,69.147 C192.758,62.954 188.777,61.206 183.59,61.21 C179.258,61.214 174.733,64.14 172.916,68.783 C171.088,73.429 171.286,81.176 171.289,86.45 L171.328,135.284 C171.329,137.148 169.758,138.602 167.858,138.604 L150.014,138.62 C148.207,138.5 146.799,137.083 146.798,135.302 L146.734,86.469 C146.726,76.162 148.389,61.045 135.715,61.055 C122.902,61.064 123.383,75.784 123.391,86.486 L123.429,135.322 C123.428,137.183 121.911,138.638 119.996,138.639" id="Path"></path>
                <path d="M450.138,37.9199856 C476.638,37.899 491.01,60.78 491.032023,89.846 C491.054,117.99 475.241,140.301 450.217,140.321013 C424.228,140.341 410.016,117.477 409.992977,88.974 C409.972,60.246 424.284,37.94 450.138,37.9199856 M450.312,56.7129926 C437.125,56.723 436.329,74.765 436.336942,86.046 C436.346,97.266 436.211,121.36 450.204,121.352002 C464.031,121.339 464.688,101.918 464.68007,90.082 C464.674,82.31 464.345,73.006 462.015,65.629 C459.979,59.242 456.005,56.708 450.312,56.7129926" id="Shape"></path>
                <path d="M525.477,138.325 L507.671,138.339 C505.873,138.22 504.459,136.804 504.457,135.024 L504.356,42.827 C504.512,41.164 505.988,39.837 507.787,39.836 L524.352,39.823 C525.911,39.906 527.199,40.946 527.541,42.382 L527.553,56.486 L527.875,56.486 C532.881,43.858 539.857,37.855 552.222,37.8459907 C560.211,37.84 568.091,40.727 573.076,48.65 C577.765,56.059 577.775,68.467 577.782,77.386 L577.827,135.389 C577.631,137.038 576.15,138.285 574.38,138.289 L556.468,138.303 C554.806,138.213 553.512,136.962 553.305,135.41 L553.265,85.356 C553.258,75.259 554.425,60.52 542.067,60.529 C537.723,60.532 533.721,63.461 531.738,67.906 C529.242,73.54 528.911,79.169 528.916,85.374 L528.955,135.003 C528.906,136.867 527.381,138.323 525.477,138.325" id="Path"></path>
                <path d="M319.197,121.588 C315.914,117.067 312.453,113.39 312.447,104.945 L312.422,76.98 C312.412,65.12 313.277,54.238 304.567,46.064 C297.7,39.474 286.311,37.148 277.621,37.1539884 C260.635,37.169 241.652,43.586 237.699,64.648 C237.248,66.937 238.907,68.105 240.382,68.458 L257.681,70.302 C259.289,70.215 260.497,68.622 260.774,66.989 C262.285,59.743 268.312,56.225 275.143,56.219 C278.799,56.214 282.968,57.576 285.164,60.864 C287.704,64.556 287.346,69.631 287.351,73.877 L287.351,76.206 C276.991,77.39 263.462,78.168 253.763,82.475 C242.574,87.355 234.708,97.269 234.71799,111.832 C234.734,130.514 246.425,139.818 261.474,139.808008 C274.2,139.798 281.133,136.777 290.945,126.719 C294.176,131.441 295.277,133.735 301.197,138.676 C302.529,139.424 304.244,139.353 305.406,138.251 L305.442,138.297 C309.032,135.128 315.494,129.434 319.166,126.35 C320.6,125.172 320.308,123.227 319.197,121.588 Z M284.032,113.564 C281.19,118.613 276.719,121.721 271.7,121.727004 C264.818,121.732 260.813,116.498 260.807986,108.683 C260.792,93.439 274.424,90.597 287.365,90.586 L287.365,94.493 C287.371,101.514 287.54,107.332 284.032,113.564 Z" id="Shape"></path>
                <path d="M84.978,121.768 C81.685,117.25 78.228,113.569 78.224,105.124 L78.203,77.159 C78.193,65.299 79.007,54.417 70.291,46.244 C63.475,39.659 52.091,37.329 43.396,37.338968 C26.395,37.349 7.432,43.765 3.458,64.833 C3.048,67.122 4.677,68.29 6.111,68.643 L23.461,70.481 C25.069,70.394 26.241,68.801 26.549,67.173 C28.013,59.922 34.092,56.404 40.918,56.399 C44.585,56.399 48.763,57.761 50.935,61.044 C53.449,64.736 53.137,69.811 53.137,74.061 L53.142,76.391 C42.767,77.569 29.238,78.353 19.538,82.655 C8.365,87.535 0.494,97.449 0.503990482,112.018 C0.519,130.693 12.236,140.002 27.251,139.993007 C39.992,139.983 46.91,136.962 56.711,126.904 C59.963,131.62 61.008,133.92 66.974,138.861 C68.316,139.609 70.031,139.537 71.188,138.431 L71.234,138.477 C74.773,135.307 81.287,129.613 84.942,126.535 C86.386,125.357 86.104,123.406 84.978,121.768 Z M49.833,113.749 C46.98,118.798 42.464,121.901 37.456,121.906004 C30.6,121.911 26.59,116.682 26.5799945,108.863 C26.57,93.618 40.196,90.781 53.152,90.771 L53.157,94.678 C53.162,101.699 53.31,107.516 49.833,113.749 Z" id="Shape"></path>
                <path d="M821.694,119.136 C821.898,118.74 822.513,118.333 822.917,118.33 C823.313,118.33 823.927,118.535 824.535,118.738 C833.459,123.141 842.396,125.545 849.293,125.54 C859.036,125.532 865.516,119.708 865.509,111.086 C865.502,104.269 862.047,100.264 852.516,95.868 C838.914,89.656 834.648,87.456 829.772,83.443 C823.491,78.428 820.439,72.22 820.432,64.399 C820.418,48.158 833.194,36.514 851.252,36.5009904 C861.801,36.493 877.424,41.5 877.424,44.91 C877.424,45.305 877.424,45.305 877.028,46.308 L873.382,53.735 C872.973,54.339 872.16,54.937 871.552,54.938 C871.15,54.938 870.734,54.739 869.927,54.538 C862.212,50.933 856.333,49.338 850.857,49.343 C841.115,49.351 835.44,54.368 835.447,62.783 C835.447,66.594 836.875,70.196 839.51,72.61 C842.357,75.21 842.357,75.21 860.813,84.019 C875.841,91.223 881.112,97.835 881.119011,109.871 C881.133,126.918 868.167,138.359 848.898,138.37502 C838.752,138.384 827.185,135.381 818.877,130.57 C817.853,129.968 817.648,129.573 817.648,128.772 C817.648,128.373 817.648,128.373 817.853,127.96 L821.694,119.136" id="Path"></path>
                <path d="M898.207,43.396 C898.2,41.366 898.337,40.96 900.365,40.9579925 L911.112,40.9579925 C912.935,40.956 913.351,41.355 913.351,43.385 L913.351,134.805 C913.351,136.843 911.788,138.318 909.957,138.318 L901.389,138.325 C899.559,138.326 898.206,136.741 898.206,134.699 L898.206,43.396" id="Path"></path>
                <path d="M996.07,58.578 C995.456,59.592 995.053,59.998 994.452,60.001 C994.036,60.001 993.435,59.792 992.821,59.194 C982.879,51.897 978.824,50.068 971.92,50.073 C955.691,50.086 947.389,62.876 947.408,87.819 C947.429,113.183 954.939,125.758 969.954,125.748 C978.065,125.742 982.32,123.904 993.879,115.781 C994.493,115.376 994.89,115.168 995.3,115.168 C995.914,115.168 996.31,115.581 996.727,116.401 L999.765,124.1 C999.963,124.702 1000.379,125.918 1000.379,126.121 C1000.379,127.14 999.361,128.35 997.136,129.985 C988.834,136.07 978.688,139.525 968.74,139.534013 C944.61,139.552 930.401,121.11 930.373979,90.272 C930.353,57.004 945.948,36.503 971.505,36.4819898 C980.225,36.476 988.759,39.107 996.256,44.384 C999.513,46.605 1000.729,48.022 1000.729,49.448 L1000.525,50.665 L996.07,58.578" id="Path"></path>
                <path d="M716.326,69.124 C716.313,57.633 716.3,38.125 690.218,38.1449846 C680.039,38.153 671.173,45.082 666.742,53.662 C663.583,42.541 656.741,38.172 645.27,38.18 C635.867,38.186 625.791,43.108 621.538,51.68 L621.533,43.768 C621.531,41.999 620.133,40.584 618.326,40.485 L609.314,40.492 C607.525,40.492 606.048,41.802 605.898,43.469 L605.898,135.126 C605.898,136.902 607.407,138.308 609.21,138.424 L618.227,138.416 C620.02,138.415 621.497,137.096 621.642,135.433 L621.592,71.02 C621.58,55.695 632.887,51.317 640.097,51.312 C650.998,51.302 652.993,60.194 653.339,67.447 L653.339,135.778 C653.339,137.524 655.142,138.416 656.959,138.523 L665.681,138.516 C667.467,138.513 668.867,137.16 669.015,135.778 L669.015,70.549 C669.227,55.618 680.306,51.281 687.453,51.276 C698.583,51.267 700.432,60.547 700.726,67.886 L700.781,135.697 C700.781,137.01 701.962,138.048 703.484,138.322 L703.463,138.429 L712.961,138.421 C714.757,138.42 716.232,137.33 716.375,135.94 L716.361,117.554 L716.326,69.124" id="Path"></path>
                <path d="M736.763,123.919 C738.655,129.014 746.015,139.421 760.858,139.408012 C774.76,139.395 782.851,134.479 787.03,125.899 L787.037,133.809 C787.037,135.58 788.409,137.003 790.184,137.102 L799.053,137.095 C800.815,137.095 802.194,135.78 802.345,134.116 L802.345,42.461 C802.345,40.679 800.931,39.272 799.15,39.16 L790.28,39.167 C788.525,39.169 787.18,40.482 787.037,42.15 L787.037,106.558 C787.044,121.881 772.698,126.228 762.969,126.273 C752.242,126.32 750.29,117.391 749.942,110.131 L749.887,41.806 C749.566,40.33 748.159,39.165 746.385,39.068 L737.794,39.074 C736.047,39.076 734.612,40.172 734.462998,41.553 L734.462998,107.037 C734.462,107.039 734.864,118.844 736.763,123.919" id="Path"></path>
                <path d="M911.078,0.183991825 L900.33,0.191 C898.309,0.193 898.098,0.557 898.105,2.382 L898.105,3.957 L898.111,11.725 L898.111,13.218 C898.111,15.042 898.521,15.408 900.344,15.4060081 L911.098,15.399 C913.119,15.397 913.33,15.031 913.33,13.207 L913.323,11.628 L913.316,3.871 L913.316,2.371 C913.317,0.546 912.907,0.182 911.078,0.183991825" id="Path"></path>
            </g>
            <rect id="Rectangle" x="0" y="0" width="1001" height="297"></rect>
        </g>
    </g>
</svg>