<?xml version="1.0" encoding="UTF-8"?>
<svg width="355px" height="72px" viewBox="0 0 355 72" version="1.1" xmlns="http://www.w3.org/2000/svg" xmlns:xlink="http://www.w3.org/1999/xlink">
    <!-- Generator: Sketch 61.2 (89653) - https://sketch.com -->
    <title>Group</title>
    <desc>Created with Sketch.</desc>
    <defs>
        <linearGradient x1="50%" y1="99.6201867%" x2="50%" y2="2.15544409%" id="linearGradient-1">
            <stop stop-color="#FA233B" offset="0%"></stop>
            <stop stop-color="#FB5C74" offset="100%"></stop>
        </linearGradient>
    </defs>
    <g id="Page-1" stroke="none" stroke-width="1" fill="none" fill-rule="evenodd">
        <g id="Group">
            <g id="Apple_Music_Icon_RGB_sm_073120">
                <path d="M72,22.52 C72,21.66 72,20.8 72,19.94 C72,19.22 71.99,18.49 71.97,17.77 C71.93,16.19 71.83,14.6 71.55,13.04 C71.27,11.46 70.8,9.98 70.07,8.54 C69.35,7.13 68.41,5.83 67.29,4.71 C66.17,3.59 64.87,2.65 63.46,1.93 C62.02,1.2 60.55,0.73 58.97,0.45 C57.41,0.17 55.82,0.08 54.24,0.03 C53.51,0.02 52.78,0.01 52.06,0 C51.2,0 50.34,0 49.48,0 L22.52,0 C21.66,0 20.8,0 19.94,0 C19.22,0 18.49,0.01 17.77,0.03 C16.19,0.07 14.6,0.17 13.04,0.45 C11.46,0.74 9.98,1.2 8.55,1.94 C7.13,2.66 5.84,3.6 4.72,4.72 C3.6,5.84 2.65,7.13 1.93,8.55 C1.2,9.99 0.73,11.46 0.45,13.05 C0.17,14.61 0.08,16.2 0.03,17.78 C0.02,18.5 0.01,19.22 0,19.94 C0,20.8 0,21.66 0,22.52 L0,49.47 C0,50.33 0,51.19 0,52.05 C0,52.77 0.01,53.5 0.03,54.22 C0.07,55.8 0.17,57.39 0.45,58.95 C0.73,60.53 1.2,62.01 1.93,63.45 C2.65,64.86 3.59,66.16 4.71,67.28 C5.83,68.4 7.13,69.34 8.54,70.06 C9.98,70.79 11.45,71.26 13.03,71.54 C14.59,71.82 16.18,71.91 17.76,71.96 C18.48,71.98 19.21,71.99 19.93,71.99 C20.79,72 21.65,71.99 22.51,71.99 L49.46,71.99 C50.32,71.99 51.18,71.99 52.04,71.99 C52.76,71.99 53.49,71.98 54.21,71.96 C55.79,71.92 57.38,71.82 58.94,71.54 C60.52,71.26 62,70.79 63.43,70.06 C64.84,69.34 66.14,68.4 67.26,67.28 C68.38,66.16 69.32,64.87 70.04,63.45 C70.77,62.01 71.24,60.54 71.52,58.95 C71.8,57.39 71.89,55.8 71.94,54.22 C71.96,53.5 71.97,52.77 71.97,52.05 C71.98,51.19 71.97,50.33 71.97,49.47 L72,22.52 L72,22.52 Z" id="Path" fill="url(#linearGradient-1)"></path>
                <g id="Glyph_2_" transform="translate(14.000000, 10.000000)" fill="#FFFFFF">
                    <path d="M36.9,1 C36.73,1.02 35.18,1.29 34.99,1.33 L13.59,5.65 L13.58,5.65 C13.02,5.77 12.58,5.97 12.25,6.25 C11.84,6.59 11.62,7.08 11.53,7.64 C11.51,7.76 11.48,8 11.48,8.36 C11.48,8.36 11.48,30.22 11.48,35.14 C11.48,35.77 11.43,36.37 11.01,36.89 C10.59,37.41 10.06,37.56 9.45,37.69 C8.98,37.78 8.52,37.88 8.05,37.97 C6.28,38.33 5.13,38.57 4.09,38.97 C3.09,39.36 2.35,39.85 1.75,40.47 C0.57,41.7 0.09,43.38 0.26,44.95 C0.4,46.29 1,47.57 2.04,48.51 C2.74,49.15 3.61,49.64 4.64,49.84 C5.71,50.05 6.84,49.98 8.5,49.64 C9.38,49.46 10.21,49.18 11,48.72 C11.78,48.26 12.45,47.65 12.97,46.9 C13.49,46.15 13.83,45.32 14.02,44.43 C14.21,43.52 14.26,42.69 14.26,41.78 L14.26,18.56 C14.26,17.32 14.61,16.99 15.62,16.74 C15.62,16.74 33.41,13.15 34.24,12.99 C35.4,12.77 35.94,13.1 35.94,14.31 L35.94,30.17 C35.94,30.8 35.93,31.43 35.51,31.95 C35.09,32.47 34.56,32.62 33.95,32.75 C33.48,32.84 33.02,32.94 32.55,33.03 C30.78,33.39 29.63,33.63 28.59,34.03 C27.59,34.42 26.85,34.91 26.25,35.53 C25.07,36.76 24.55,38.44 24.72,40.01 C24.86,41.35 25.5,42.63 26.54,43.57 C27.24,44.21 28.11,44.68 29.14,44.89 C30.21,45.1 31.34,45.03 33,44.69 C33.88,44.51 34.71,44.25 35.5,43.78 C36.28,43.32 36.95,42.71 37.47,41.96 C37.99,41.21 38.33,40.38 38.52,39.49 C38.71,38.58 38.72,37.75 38.72,36.84 L38.72,2.89 C38.71,1.66 38.06,0.9 36.9,1 Z" id="Path"></path>
                </g>
            </g>
            <path d="M98.4521484,18.7705078 L85.6347656,54 L91.3964844,54 L94.622,44.479 L108.197,44.479 L111.416016,54 L117.177734,54 L104.384766,18.7705078 L101.479492,18.7705078 L98.4521484,18.7705078 Z M101.479,24.606 L106.712,40.084 L96.112,40.084 L101.357422,24.6054688 L101.479,24.606 Z M126.064453,62.5449219 L126.064453,49.6787109 L126.162109,49.6787109 C126.682943,50.6715495 127.342122,51.5301107 128.139648,52.2543945 C128.937174,52.9786784 129.86084,53.5361328 130.910645,53.9267578 C131.960449,54.3173828 133.087565,54.5126953 134.291992,54.5126953 C136.44043,54.5126953 138.312174,53.9674479 139.907227,52.8769531 C141.502279,51.7864583 142.743327,50.2483724 143.630371,48.2626953 C144.517415,46.2770182 144.960938,43.9169922 144.960938,41.1826172 L144.960938,41.1582031 C144.960938,38.4238281 144.521484,36.0597331 143.642578,34.065918 C142.763672,32.0721029 141.518555,30.5340169 139.907227,29.4516602 C138.295898,28.3693034 136.39974,27.828125 134.21875,27.828125 C132.998047,27.828125 131.875,28.0234375 130.849609,28.4140625 C129.824219,28.8046875 128.916829,29.3662109 128.127441,30.0986328 C127.338053,30.8310547 126.691081,31.7018229 126.186523,32.7109375 L126.064453,32.7109375 L126.064453,28.3164062 L120.742188,28.3164062 L120.742188,62.5449219 L126.064453,62.5449219 Z M132.827148,49.9472656 C131.492513,49.9472656 130.316569,49.5851237 129.299316,48.8608398 C128.282064,48.136556 127.480469,47.1193034 126.894531,45.809082 C126.308594,44.4988607 126.015625,42.9567057 126.015625,41.1826172 L126.015625,41.1582031 C126.015625,39.3678385 126.304525,37.8175456 126.882324,36.5073242 C127.460124,35.1971029 128.261719,34.1798503 129.287109,33.4555664 C130.3125,32.7312826 131.492513,32.3691406 132.827148,32.3691406 C134.210612,32.3691406 135.406901,32.7190755 136.416016,33.4189453 C137.42513,34.1188151 138.198242,35.1279297 138.735352,36.4462891 C139.272461,37.7646484 139.541016,39.3352865 139.541016,41.1582031 L139.541016,41.1826172 C139.541016,42.9729818 139.272461,44.5273438 138.735352,45.8457031 C138.198242,47.1640625 137.42513,48.1772461 136.416016,48.8852539 C135.406901,49.5932617 134.210612,49.9472656 132.827148,49.9472656 Z M154.677734,62.5449219 L154.677734,49.6787109 L154.775391,49.6787109 C155.296224,50.6715495 155.955404,51.5301107 156.75293,52.2543945 C157.550456,52.9786784 158.474121,53.5361328 159.523926,53.9267578 C160.57373,54.3173828 161.700846,54.5126953 162.905273,54.5126953 C165.053711,54.5126953 166.925456,53.9674479 168.520508,52.8769531 C170.11556,51.7864583 171.356608,50.2483724 172.243652,48.2626953 C173.130697,46.2770182 173.574219,43.9169922 173.574219,41.1826172 L173.574219,41.1582031 C173.574219,38.4238281 173.134766,36.0597331 172.255859,34.065918 C171.376953,32.0721029 170.131836,30.5340169 168.520508,29.4516602 C166.90918,28.3693034 165.013021,27.828125 162.832031,27.828125 C161.611328,27.828125 160.488281,28.0234375 159.462891,28.4140625 C158.4375,28.8046875 157.530111,29.3662109 156.740723,30.0986328 C155.951335,30.8310547 155.304362,31.7018229 154.799805,32.7109375 L154.677734,32.7109375 L154.677734,28.3164062 L149.355469,28.3164062 L149.355469,62.5449219 L154.677734,62.5449219 Z M161.44043,49.9472656 C160.105794,49.9472656 158.92985,49.5851237 157.912598,48.8608398 C156.895345,48.136556 156.09375,47.1193034 155.507812,45.809082 C154.921875,44.4988607 154.628906,42.9567057 154.628906,41.1826172 L154.628906,41.1582031 C154.628906,39.3678385 154.917806,37.8175456 155.495605,36.5073242 C156.073405,35.1971029 156.875,34.1798503 157.900391,33.4555664 C158.925781,32.7312826 160.105794,32.3691406 161.44043,32.3691406 C162.823893,32.3691406 164.020182,32.7190755 165.029297,33.4189453 C166.038411,34.1188151 166.811523,35.1279297 167.348633,36.4462891 C167.885742,37.7646484 168.154297,39.3352865 168.154297,41.1582031 L168.154297,41.1826172 C168.154297,42.9729818 167.885742,44.5273438 167.348633,45.8457031 C166.811523,47.1640625 166.038411,48.1772461 165.029297,48.8852539 C164.020182,49.5932617 162.823893,49.9472656 161.44043,49.9472656 Z M183.486328,54 L183.486328,18.7705078 L178.188477,18.7705078 L178.188477,54 L183.486328,54 Z M200.209961,54.5126953 C201.772461,54.5126953 203.188477,54.3011068 204.458008,53.8779297 C205.727539,53.4547526 206.830241,52.8728841 207.766113,52.1323242 C208.701986,51.3917643 209.462891,50.5576172 210.048828,49.6298828 C210.634766,48.7021484 211.033529,47.733724 211.245117,46.7246094 L211.293945,46.4560547 L206.264648,46.4560547 L206.191406,46.6513672 C205.979818,47.3024089 205.609538,47.8924154 205.080566,48.4213867 C204.551595,48.9503581 203.888346,49.3735352 203.09082,49.690918 C202.293294,50.0083008 201.373698,50.1669922 200.332031,50.1669922 C198.916016,50.1669922 197.687174,49.8536784 196.645508,49.2270508 C195.603841,48.6004232 194.802246,47.6971029 194.240723,46.5170898 C193.725993,45.4354112 193.447181,44.1520058 193.404287,42.6668735 L193.402,42.501 L211.586914,42.5009766 L211.586914,40.71875 C211.586914,38.1471354 211.114909,35.8888346 210.170898,33.9438477 C209.226888,31.9988607 207.888184,30.4933268 206.154785,29.4272461 C204.421387,28.3611654 202.35026,27.828125 199.941406,27.828125 C197.548828,27.828125 195.465495,28.3855794 193.691406,29.5004883 C191.917318,30.6153971 190.541992,32.1778971 189.56543,34.1879883 C188.588867,36.1980794 188.100586,38.5377604 188.100586,41.2070312 L188.100586,41.2314453 C188.100586,43.9332682 188.584798,46.2810872 189.553223,48.2749023 C190.521647,50.2687174 191.913249,51.8068034 193.728027,52.8891602 C195.542806,53.9715169 197.703451,54.5126953 200.209961,54.5126953 Z M206.346,38.766 L193.47,38.766 L193.479336,38.6759142 C193.600684,37.5863824 193.858549,36.6275165 194.25293,35.7993164 C194.822591,34.6030273 195.603841,33.695638 196.59668,33.0771484 C197.589518,32.4586589 198.712565,32.1494141 199.96582,32.1494141 C201.235352,32.1494141 202.354329,32.4423828 203.322754,33.0283203 C204.291178,33.6142578 205.048014,34.5053711 205.593262,35.7016602 C205.970741,36.5298603 206.217554,37.5043281 206.333701,38.6250636 L206.346,38.766 Z M232.070312,54 L232.070312,28.0234375 L232.246,28.024 L242.836914,54 L246.889648,54 L257.498,28.024 L257.680664,28.0234375 L257.680664,54 L262.685547,54 L262.685547,18.7705078 L256.337891,18.7705078 L244.936523,46.8710938 L244.790039,46.8710938 L233.388672,18.7705078 L227.06543,18.7705078 L227.06543,54 L232.070312,54 Z M277.626953,54.5126953 C279.580078,54.5126953 281.211751,54.1098633 282.521973,53.3041992 C283.832194,52.4985352 284.820964,51.4446615 285.488281,50.1425781 L285.610352,50.1425781 L285.610352,54 L290.908203,54 L290.908203,28.3164062 L285.610352,28.3164062 L285.610352,43.3066406 C285.610352,44.625 285.362142,45.784668 284.865723,46.7856445 C284.369303,47.7866211 283.661296,48.5638021 282.741699,49.1171875 C281.822103,49.6705729 280.743815,49.9472656 279.506836,49.9472656 C277.683919,49.9472656 276.320801,49.4305013 275.41748,48.3969727 C274.51416,47.363444 274.0625,45.8782552 274.0625,43.9414062 L274.0625,28.3164062 L268.740234,28.3164062 L268.740234,44.9423828 C268.740234,46.9117839 269.090169,48.6126302 269.790039,50.0449219 C270.489909,51.4772135 271.503092,52.5799154 272.82959,53.3530273 C274.156087,54.1261393 275.755208,54.5126953 277.626953,54.5126953 Z M306.118164,54.5126953 C308.136393,54.5126953 309.930827,54.1790365 311.501465,53.5117188 C313.072103,52.844401 314.305013,51.9166667 315.200195,50.7285156 C316.095378,49.5403646 316.542969,48.1650391 316.542969,46.6025391 L316.542969,46.578125 C316.542969,44.7226562 315.993652,43.2456055 314.89502,42.1469727 C313.796387,41.0483398 311.936849,40.1979167 309.316406,39.5957031 L305.117188,38.6191406 C303.75,38.3098958 302.773438,37.8785807 302.1875,37.3251953 C301.601562,36.7718099 301.308594,36.1044922 301.308594,35.3232422 L301.308594,35.2988281 C301.308594,34.6152344 301.495768,34.0170898 301.870117,33.5043945 C302.244466,32.9916992 302.781576,32.5970052 303.481445,32.3203125 C304.181315,32.0436198 305.003255,31.9052734 305.947266,31.9052734 C307.428385,31.9052734 308.60026,32.2592773 309.462891,32.9672852 C310.325521,33.675293 310.830078,34.5908203 310.976562,35.7138672 L311.000977,35.8847656 L315.957031,35.8847656 L315.957031,35.5917969 C315.875651,34.1432292 315.423991,32.8289388 314.602051,31.6489258 C313.780111,30.4689128 312.636719,29.5371094 311.171875,28.8535156 C309.707031,28.1699219 307.965495,27.828125 305.947266,27.828125 C303.977865,27.828125 302.244466,28.1495768 300.74707,28.7924805 C299.249674,29.4353841 298.085938,30.3387044 297.255859,31.5024414 C296.425781,32.6661784 296.010742,34.0211589 296.010742,35.5673828 L296.010742,35.5917969 C296.010742,37.4472656 296.617025,38.9731445 297.82959,40.1694336 C299.042155,41.3657227 300.869141,42.2405599 303.310547,42.7939453 L307.509766,43.7460938 C308.893229,44.0878906 309.853516,44.5110677 310.390625,45.015625 C310.927734,45.5201823 311.196289,46.1875 311.196289,47.0175781 L311.196289,47.0419922 C311.196289,47.741862 310.992839,48.3440755 310.585938,48.8486328 C310.179036,49.3531901 309.601237,49.7397461 308.852539,50.0083008 C308.103841,50.2768555 307.192383,50.4111328 306.118164,50.4111328 C304.506836,50.4111328 303.253581,50.081543 302.358398,49.4223633 C301.463216,48.7631836 300.885417,47.8476562 300.625,46.6757812 L300.576172,46.4316406 L295.351562,46.4316406 L295.375977,46.6513672 C295.555013,48.2138672 296.083984,49.5851237 296.962891,50.7651367 C297.841797,51.9451497 299.050293,52.8647461 300.588379,53.5239258 C302.126465,54.1831055 303.969727,54.5126953 306.118164,54.5126953 Z M323.842773,24.3613281 C324.705404,24.3613281 325.433757,24.0642904 326.027832,23.4702148 C326.621908,22.8761393 326.918945,22.1640625 326.918945,21.3339844 C326.918945,20.4713542 326.621908,19.7470703 326.027832,19.1611328 C325.433757,18.5751953 324.705404,18.2822266 323.842773,18.2822266 C322.996419,18.2822266 322.272135,18.5751953 321.669922,19.1611328 C321.067708,19.7470703 320.766602,20.4713542 320.766602,21.3339844 C320.766602,22.1640625 321.067708,22.8761393 321.669922,23.4702148 C322.272135,24.0642904 322.996419,24.3613281 323.842773,24.3613281 Z M326.503906,54 L326.503906,28.3164062 L321.181641,28.3164062 L321.181641,54 L326.503906,54 Z M343.300781,54.5126953 C345.367839,54.5126953 347.194824,54.1098633 348.781738,53.3041992 C350.368652,52.4985352 351.646322,51.4080404 352.614746,50.0327148 C353.583171,48.6573893 354.165039,47.1152344 354.360352,45.40625 L354.360352,45.2353516 L349.282227,45.2353516 L349.257812,45.4306641 C348.932292,46.8141276 348.269043,47.9331055 347.268066,48.7875977 C346.26709,49.6420898 344.952799,50.0693359 343.325195,50.0693359 C341.958008,50.0693359 340.765788,49.719401 339.748535,49.0195312 C338.731283,48.3196615 337.937826,47.3064779 337.368164,45.9799805 C336.798503,44.6534831 336.513672,43.054362 336.513672,41.1826172 L336.513672,41.1582031 C336.513672,39.3352865 336.794434,37.7565104 337.355957,36.421875 C337.91748,35.0872396 338.706868,34.0577799 339.724121,33.3334961 C340.741374,32.6092122 341.925456,32.2470703 343.276367,32.2470703 C345.001628,32.2470703 346.356608,32.7068685 347.341309,33.6264648 C348.326009,34.5460612 348.956706,35.632487 349.233398,36.8857422 L349.282227,37.1054688 L354.335938,37.1054688 L354.311523,36.9101562 C354.165039,35.2988281 353.636068,33.8014323 352.724609,32.4179688 C351.813151,31.0345052 350.555827,29.9236654 348.952637,29.0854492 C347.349447,28.2472331 345.449219,27.828125 343.251953,27.828125 C340.810547,27.828125 338.678385,28.3693034 336.855469,29.4516602 C335.032552,30.5340169 333.620605,32.0680339 332.619629,34.0537109 C331.618652,36.039388 331.118164,38.391276 331.118164,41.109375 L331.118164,41.1337891 C331.118164,43.8681641 331.610514,46.2363281 332.595215,48.2382812 C333.579915,50.2402344 334.987793,51.7864583 336.818848,52.8769531 C338.649902,53.9674479 340.810547,54.5126953 343.300781,54.5126953 Z" id="AppleMusic" fill="#030706" fill-rule="nonzero"></path>
        </g>
    </g>
</svg>