<?xml version="1.0" encoding="UTF-8"?>
<svg width="949px" height="108px" viewBox="0 0 949 108" version="1.1" xmlns="http://www.w3.org/2000/svg" xmlns:xlink="http://www.w3.org/1999/xlink">
    <!-- Generator: Sketch 61.2 (89653) - https://sketch.com -->
    <title>Group 3</title>
    <desc>Created with Sketch.</desc>
    <defs>
        <path d="M148.613,0.001 C143.278,0.001 137.943,1.524 132.609,3.049 L132.609,3.049 C130.322,3.811 129.559,4.574 129.559,6.86 L129.559,6.86 L129.559,103.648 C129.559,105.173 131.084,106.698 132.609,107.459 L132.609,107.459 L217.203,107.459 C233.97,107.459 247.688,93.741 247.688,76.974 L247.688,76.974 C247.688,60.208 233.97,46.489 217.203,46.489 L217.203,46.489 C213.393,46.489 208.82,47.252 205.771,48.776 L205.771,48.776 C203.486,21.34 180.622,0.001 152.424,0.001 L152.424,0.001 L148.613,0.001 Z M122.702,6.86 C121.177,6.86 120.415,8.383 120.415,9.908 L120.415,9.908 L118.891,78.498 L120.415,103.648 C120.415,105.173 121.939,106.698 123.463,106.698 L123.463,106.698 C124.988,106.698 126.511,105.173 126.511,103.648 L126.511,103.648 L128.036,78.498 L126.511,9.908 C126.511,8.383 124.988,6.86 123.463,6.86 L123.463,6.86 L122.702,6.86 Z M109.745,15.242 L108.221,78.498 L109.745,103.648 C109.745,105.173 111.27,106.698 112.793,106.698 L112.793,106.698 C114.318,106.698 115.843,105.173 115.843,103.648 L115.843,103.648 L117.366,78.498 L115.843,15.242 C115.843,13.719 114.318,12.194 112.793,12.194 L112.793,12.194 C111.27,12.194 109.745,13.719 109.745,15.242 L109.745,15.242 Z M79.26,22.101 L77.737,78.498 L79.26,104.41 C79.26,105.934 80.023,106.698 81.547,106.698 L81.547,106.698 C83.071,106.698 83.833,105.934 83.833,104.41 L83.833,104.41 L85.357,78.498 L83.833,22.101 C83.833,20.577 82.309,19.815 81.547,19.815 L81.547,19.815 C80.785,19.815 79.26,20.577 79.26,22.101 L79.26,22.101 Z M89.167,23.626 L87.644,78.498 L89.167,104.41 C89.167,105.934 90.692,107.459 92.216,107.459 L92.216,107.459 C93.74,107.459 95.264,105.934 95.264,104.41 L95.264,104.41 L96.789,78.498 L95.264,23.626 C95.264,22.101 93.74,20.577 92.216,20.577 L92.216,20.577 C90.692,20.577 89.167,22.101 89.167,23.626 L89.167,23.626 Z M69.353,23.626 L67.829,78.498 L69.353,104.41 C69.353,105.934 70.115,106.698 71.639,106.698 L71.639,106.698 C73.164,106.698 73.926,105.934 73.926,104.41 L73.926,104.41 L75.45,78.498 L73.926,23.626 C73.926,22.101 73.164,21.34 71.639,21.34 L71.639,21.34 C70.115,21.34 69.353,22.863 69.353,23.626 L69.353,23.626 Z M99.837,25.912 L98.313,78.498 L99.837,103.648 C99.837,105.173 101.362,106.698 102.886,106.698 L102.886,106.698 C104.41,106.698 105.935,105.173 105.935,103.648 L105.935,103.648 L107.459,78.498 L105.935,25.15 C105.935,23.626 104.41,22.101 102.886,22.101 L102.886,22.101 C100.599,22.863 99.837,23.626 99.837,25.912 L99.837,25.912 Z M861.955,24.388 L861.955,64.019 C861.955,75.451 856.621,82.309 847.476,82.309 L847.476,82.309 C838.33,82.309 832.996,75.451 832.996,64.019 L832.996,64.019 L832.996,25.15 L819.276,25.15 L819.276,64.019 C819.276,83.833 830.708,95.265 847.475,95.265 L847.475,95.265 C865.004,95.265 875.674,83.833 875.674,63.255 L875.674,63.255 L875.674,24.388 L861.955,24.388 Z M746.113,60.208 C746.113,81.547 757.545,96.027 775.836,96.027 L775.836,96.027 C794.889,96.027 805.558,81.547 805.558,60.208 L805.558,60.208 C805.558,38.868 794.128,24.388 775.836,24.388 L775.836,24.388 C757.545,24.388 746.113,38.868 746.113,60.208 L746.113,60.208 Z M760.594,60.208 C760.594,48.014 765.167,38.107 776.599,38.107 L776.599,38.107 C788.031,38.107 792.603,48.014 792.603,60.208 L792.603,60.208 C792.603,72.401 788.031,82.309 776.599,82.309 L776.599,82.309 C765.167,82.309 760.594,72.401 760.594,60.208 L760.594,60.208 Z M629.51,60.208 C629.51,82.309 641.704,96.027 659.994,96.027 L659.994,96.027 C672.951,96.027 680.572,89.931 685.906,80.022 L685.906,80.022 L674.475,73.165 C670.665,79.261 666.854,82.309 660.757,82.309 L660.757,82.309 C650.087,82.309 643.99,73.165 643.99,60.208 L643.99,60.208 C643.99,47.252 650.087,38.107 659.994,38.107 L659.994,38.107 C666.091,38.107 669.901,41.155 672.951,45.728 L672.951,45.728 L685.906,39.63 C681.333,30.485 673.712,24.388 660.757,24.388 L660.757,24.388 C642.466,24.388 629.51,38.868 629.51,60.208 L629.51,60.208 Z M456.509,24.388 L456.509,64.019 C456.509,75.451 451.174,82.309 442.029,82.309 L442.029,82.309 C432.883,82.309 427.549,75.451 427.549,64.019 L427.549,64.019 L427.549,25.15 L413.831,25.15 L413.831,64.019 C413.831,83.833 425.262,95.265 442.029,95.265 L442.029,95.265 C459.557,95.265 470.227,83.833 470.227,63.255 L470.227,63.255 L470.227,24.388 L456.509,24.388 Z M339.905,60.208 C339.905,81.547 351.337,96.027 369.627,96.027 L369.627,96.027 C388.68,96.027 400.112,81.547 400.112,60.208 L400.112,60.208 C400.112,38.868 388.68,24.388 369.627,24.388 L369.627,24.388 C351.337,24.388 339.905,38.868 339.905,60.208 L339.905,60.208 Z M354.385,60.208 C354.385,48.014 358.958,38.107 370.39,38.107 L370.39,38.107 C381.821,38.107 386.394,48.014 386.394,60.208 L386.394,60.208 C386.394,72.401 381.821,82.309 370.39,82.309 L370.39,82.309 C358.958,82.309 354.385,72.401 354.385,60.208 L354.385,60.208 Z M893.202,94.503 L913.78,94.503 C929.021,94.503 945.027,86.882 948.838,68.591 L948.838,68.591 L948.838,51.062 C945.788,32.772 932.832,25.912 915.305,25.912 L915.305,25.912 L893.202,25.912 L893.202,25.15 L893.202,94.503 Z M906.92,38.868 L914.542,38.868 C929.021,38.868 935.12,45.728 935.12,60.208 L935.12,60.208 C935.12,73.165 928.26,81.547 913.78,81.547 L913.78,81.547 L906.92,81.547 L906.92,38.868 Z M698.1,25.15 L698.1,94.503 L740.017,94.503 L740.017,80.785 L712.58,80.785 L712.58,25.15 L698.1,25.15 Z M561.681,94.503 L582.259,94.503 C599.788,94.503 618.078,84.595 618.078,60.208 L618.078,60.208 C618.078,35.058 603.598,25.912 583.782,25.912 L583.782,25.912 L561.681,25.912 L561.681,25.15 L561.681,94.503 Z M575.399,38.868 L583.021,38.868 C597.5,38.868 603.598,45.728 603.598,60.208 L603.598,60.208 C603.598,73.165 596.739,81.547 582.259,81.547 L582.259,81.547 L575.399,81.547 L575.399,38.868 Z M529.672,25.15 L529.672,54.111 L529.672,69.354 C528.91,67.829 526.623,64.019 525.1,61.732 L525.1,61.732 L500.711,25.15 L487.755,25.15 L487.755,94.503 L501.474,94.503 L501.474,64.019 L501.474,48.776 C502.236,50.3 504.522,54.111 506.047,56.397 L506.047,56.397 L531.196,94.503 L543.39,94.503 L543.39,25.15 L529.672,25.15 Z M301.036,25.15 C288.08,25.15 278.173,32.772 278.173,44.966 L278.173,44.966 C278.173,58.684 287.319,62.494 299.513,65.542 L299.513,65.542 C312.468,68.591 314.755,70.115 314.755,74.687 L314.755,74.687 C314.755,80.022 310.945,82.309 302.561,82.309 L302.561,82.309 C295.702,82.309 289.605,80.022 285.032,74.687 L285.032,74.687 L275.125,83.833 C280.46,91.454 290.367,96.79 301.799,96.79 L301.799,96.79 C320.852,96.79 329.235,87.644 329.235,74.687 L329.235,74.687 C329.235,59.445 317.041,55.635 306.372,53.348 L306.372,53.348 C295.702,51.062 292.653,49.538 292.653,44.966 L292.653,44.966 C292.653,41.917 294.94,38.868 302.561,38.868 L302.561,38.868 C308.658,38.868 313.993,41.155 318.565,45.728 L318.565,45.728 L328.473,35.82 C321.614,28.961 313.993,25.15 303.323,25.15 L303.323,25.15 L301.036,25.15 Z M59.445,28.199 L57.92,78.498 L59.445,105.173 C59.445,106.698 60.207,107.459 61.731,107.459 L61.731,107.459 C62.493,107.459 64.018,106.698 64.018,105.173 L64.018,105.173 L66.304,78.498 L64.018,28.199 C64.018,26.674 63.256,25.912 61.731,25.912 L61.731,25.912 C60.207,25.912 59.445,26.674 59.445,28.199 L59.445,28.199 Z M49.538,37.344 L47.252,78.498 L49.538,105.173 C49.538,105.934 50.3,106.698 51.062,106.698 L51.062,106.698 C52.586,106.698 53.348,105.934 53.348,105.173 L53.348,105.173 L55.634,78.498 L53.348,37.344 C53.348,36.582 52.586,35.82 51.824,35.82 L51.824,35.82 C50.3,35.82 49.538,36.582 49.538,37.344 L49.538,37.344 Z M29.723,51.062 L27.437,78.498 L29.723,104.41 C29.723,105.173 30.485,105.934 31.247,105.934 L31.247,105.934 C32.009,105.934 32.771,105.173 32.771,104.41 L32.771,104.41 L35.058,78.498 L32.771,51.062 C32.771,50.3 32.009,49.538 31.247,49.538 L31.247,49.538 C30.485,49.538 30.485,50.3 29.723,51.062 L29.723,51.062 Z M20.577,51.825 L18.291,78.498 L20.577,103.648 C20.577,104.41 21.339,105.173 22.101,105.173 L22.101,105.173 C22.101,105.173 22.864,104.41 22.864,103.648 L22.864,103.648 L25.15,78.498 L22.864,51.825 C22.864,51.062 22.101,50.3 21.339,50.3 L21.339,50.3 C21.339,51.062 20.577,51.062 20.577,51.825 L20.577,51.825 Z M39.631,53.348 L38.106,78.498 L39.631,105.173 C39.631,105.934 40.393,106.698 41.154,106.698 L41.154,106.698 C41.917,106.698 42.679,105.934 42.679,105.173 L42.679,105.173 L45.727,78.498 L43.441,53.348 C43.441,52.587 42.679,51.825 41.917,51.825 L41.917,51.825 C40.393,51.825 39.631,52.587 39.631,53.348 L39.631,53.348 Z M10.669,56.397 L8.383,78.498 L10.669,100.599 C10.669,101.362 11.432,101.362 11.432,101.362 L11.432,101.362 C12.194,101.362 12.194,100.599 12.194,100.599 L12.194,100.599 L15.242,78.498 L12.194,56.397 C12.194,55.635 11.432,55.635 11.432,55.635 L11.432,55.635 L10.669,56.397 Z M1.525,64.78 L0,78.498 L1.525,92.217 C1.525,92.979 2.287,92.979 2.287,92.979 L2.287,92.979 C3.048,92.979 3.048,92.217 3.048,92.217 L3.048,92.217 L5.335,78.498 L3.048,64.78 C3.048,64.019 2.287,64.019 2.287,64.019 L2.287,64.019 C2.287,64.019 1.525,64.019 1.525,64.78 L1.525,64.78 Z" id="path-1"></path>
    </defs>
    <g id="Page-1" stroke="none" stroke-width="1" fill="none" fill-rule="evenodd">
        <g id="Group-3">
            <mask id="mask-2" fill="white">
                <use xlink:href="#path-1"></use>
            </mask>
            <use id="Clip-2" fill="#F37422" xlink:href="#path-1"></use>
        </g>
    </g>
</svg>